<?xml version="1.0" encoding="UTF-8" standalone="no"?>
<!DOCTYPE svg PUBLIC "-//W3C//DTD SVG 1.1//EN"
 "http://www.w3.org/Graphics/SVG/1.1/DTD/svg11.dtd">
<!-- Generated by graphviz version 5.0.0 (20220707.1540)
 -->
<!-- Pages: 1 -->
<svg width="1734pt" height="476pt"
 viewBox="0.00 0.00 1734.30 476.00" xmlns="http://www.w3.org/2000/svg" xmlns:xlink="http://www.w3.org/1999/xlink">
<g id="graph0" class="graph" transform="scale(1 1) rotate(0) translate(4 472)">
<polygon fill="white" stroke="transparent" points="-4,4 -4,-472 1730.3,-472 1730.3,4 -4,4"/>
<!-- [root] @noita&#45;explorer/desktop#build -->
<g id="node1" class="node">
<title>[root] @noita&#45;explorer/desktop#build</title>
<ellipse fill="none" stroke="black" cx="936" cy="-378" rx="156.37" ry="18"/>
<text text-anchor="middle" x="936" y="-373.8" font-family="Times,serif" font-size="14.00">[root] @noita&#45;explorer/desktop#build</text>
</g>
<!-- [root] @noita&#45;explorer/file&#45;systems#build -->
<g id="node2" class="node">
<title>[root] @noita&#45;explorer/file&#45;systems#build</title>
<ellipse fill="none" stroke="black" cx="725" cy="-306" rx="173.12" ry="18"/>
<text text-anchor="middle" x="725" y="-301.8" font-family="Times,serif" font-size="14.00">[root] @noita&#45;explorer/file&#45;systems#build</text>
</g>
<!-- [root] @noita&#45;explorer/desktop#build&#45;&gt;[root] @noita&#45;explorer/file&#45;systems#build -->
<g id="edge1" class="edge">
<title>[root] @noita&#45;explorer/desktop#build&#45;&gt;[root] @noita&#45;explorer/file&#45;systems#build</title>
<path fill="none" stroke="black" d="M887.33,-360.85C856.55,-350.64 816.59,-337.38 784.01,-326.58"/>
<polygon fill="black" stroke="black" points="784.75,-323.14 774.16,-323.31 782.55,-329.78 784.75,-323.14"/>
</g>
<!-- [root] @noita&#45;explorer/model#build -->
<g id="node3" class="node">
<title>[root] @noita&#45;explorer/model#build</title>
<ellipse fill="none" stroke="black" cx="898" cy="-162" rx="150.56" ry="18"/>
<text text-anchor="middle" x="898" y="-157.8" font-family="Times,serif" font-size="14.00">[root] @noita&#45;explorer/model#build</text>
</g>
<!-- [root] @noita&#45;explorer/desktop#build&#45;&gt;[root] @noita&#45;explorer/model#build -->
<g id="edge2" class="edge">
<title>[root] @noita&#45;explorer/desktop#build&#45;&gt;[root] @noita&#45;explorer/model#build</title>
<path fill="none" stroke="black" d="M936.06,-359.83C935.88,-341.82 934.92,-312.76 931,-288 925.54,-253.51 914.53,-214.78 906.73,-189.7"/>
<polygon fill="black" stroke="black" points="910.06,-188.63 903.71,-180.15 903.39,-190.74 910.06,-188.63"/>
</g>
<!-- [root] @noita&#45;explorer/scrapers#build -->
<g id="node4" class="node">
<title>[root] @noita&#45;explorer/scrapers#build</title>
<ellipse fill="none" stroke="black" cx="1150" cy="-306" rx="158.05" ry="18"/>
<text text-anchor="middle" x="1150" y="-301.8" font-family="Times,serif" font-size="14.00">[root] @noita&#45;explorer/scrapers#build</text>
</g>
<!-- [root] @noita&#45;explorer/desktop#build&#45;&gt;[root] @noita&#45;explorer/scrapers#build -->
<g id="edge3" class="edge">
<title>[root] @noita&#45;explorer/desktop#build&#45;&gt;[root] @noita&#45;explorer/scrapers#build</title>
<path fill="none" stroke="black" d="M985.36,-360.85C1016.82,-350.56 1057.75,-337.17 1090.93,-326.32"/>
<polygon fill="black" stroke="black" points="1092.1,-329.62 1100.51,-323.19 1089.92,-322.97 1092.1,-329.62"/>
</g>
<!-- [root] @noita&#45;explorer/tools#build -->
<g id="node5" class="node">
<title>[root] @noita&#45;explorer/tools#build</title>
<ellipse fill="none" stroke="black" cx="725" cy="-234" rx="145.35" ry="18"/>
<text text-anchor="middle" x="725" y="-229.8" font-family="Times,serif" font-size="14.00">[root] @noita&#45;explorer/tools#build</text>
</g>
<!-- [root] @noita&#45;explorer/desktop#build&#45;&gt;[root] @noita&#45;explorer/tools#build -->
<g id="edge4" class="edge">
<title>[root] @noita&#45;explorer/desktop#build&#45;&gt;[root] @noita&#45;explorer/tools#build</title>
<path fill="none" stroke="black" d="M935.06,-359.77C933.05,-339.78 926.72,-307.11 907,-288 888.03,-269.62 863.07,-257.56 837.74,-249.66"/>
<polygon fill="black" stroke="black" points="838.61,-246.26 828.03,-246.83 836.65,-252.98 838.61,-246.26"/>
</g>
<!-- [root] @noita&#45;explorer/file&#45;systems#build&#45;&gt;[root] @noita&#45;explorer/model#build -->
<g id="edge6" class="edge">
<title>[root] @noita&#45;explorer/file&#45;systems#build&#45;&gt;[root] @noita&#45;explorer/model#build</title>
<path fill="none" stroke="black" d="M815.6,-290.55C839.15,-282.71 862.5,-270.63 879,-252 893.85,-235.23 898.08,-209.75 898.9,-190.34"/>
<polygon fill="black" stroke="black" points="902.4,-190.33 899.05,-180.28 895.4,-190.22 902.4,-190.33"/>
</g>
<!-- [root] @noita&#45;explorer/file&#45;systems#build&#45;&gt;[root] @noita&#45;explorer/tools#build -->
<g id="edge7" class="edge">
<title>[root] @noita&#45;explorer/file&#45;systems#build&#45;&gt;[root] @noita&#45;explorer/tools#build</title>
<path fill="none" stroke="black" d="M725,-287.7C725,-279.98 725,-270.71 725,-262.11"/>
<polygon fill="black" stroke="black" points="728.5,-262.1 725,-252.1 721.5,-262.1 728.5,-262.1"/>
</g>
<!-- [root] @noita&#45;explorer/model#generate&#45;barrels -->
<g id="node10" class="node">
<title>[root] @noita&#45;explorer/model#generate&#45;barrels</title>
<ellipse fill="none" stroke="black" cx="898" cy="-90" rx="192.74" ry="18"/>
<text text-anchor="middle" x="898" y="-85.8" font-family="Times,serif" font-size="14.00">[root] @noita&#45;explorer/model#generate&#45;barrels</text>
</g>
<!-- [root] @noita&#45;explorer/model#build&#45;&gt;[root] @noita&#45;explorer/model#generate&#45;barrels -->
<g id="edge12" class="edge">
<title>[root] @noita&#45;explorer/model#build&#45;&gt;[root] @noita&#45;explorer/model#generate&#45;barrels</title>
<path fill="none" stroke="black" d="M898,-143.7C898,-135.98 898,-126.71 898,-118.11"/>
<polygon fill="black" stroke="black" points="901.5,-118.1 898,-108.1 894.5,-118.1 901.5,-118.1"/>
</g>
<!-- [root] @noita&#45;explorer/scrapers#build&#45;&gt;[root] @noita&#45;explorer/model#build -->
<g id="edge23" class="edge">
<title>[root] @noita&#45;explorer/scrapers#build&#45;&gt;[root] @noita&#45;explorer/model#build</title>
<path fill="none" stroke="black" d="M1104.85,-288.72C1080.78,-279.3 1051.04,-266.46 1026,-252 1002.91,-238.66 999.79,-231.37 978,-216 963.34,-205.66 946.87,-194.65 932.69,-185.35"/>
<polygon fill="black" stroke="black" points="934.49,-182.34 924.2,-179.81 930.66,-188.2 934.49,-182.34"/>
</g>
<!-- [root] @noita&#45;explorer/scrapers#build&#45;&gt;[root] @noita&#45;explorer/tools#build -->
<g id="edge25" class="edge">
<title>[root] @noita&#45;explorer/scrapers#build&#45;&gt;[root] @noita&#45;explorer/tools#build</title>
<path fill="none" stroke="black" d="M1064.25,-290.88C993.04,-279.15 891.9,-262.49 818.6,-250.42"/>
<polygon fill="black" stroke="black" points="818.88,-246.92 808.45,-248.74 817.74,-253.82 818.88,-246.92"/>
</g>
<!-- [root] @noita&#45;explorer/fastlz#build -->
<g id="node6" class="node">
<title>[root] @noita&#45;explorer/fastlz#build</title>
<ellipse fill="none" stroke="black" cx="1579" cy="-234" rx="147.11" ry="18"/>
<text text-anchor="middle" x="1579" y="-229.8" font-family="Times,serif" font-size="14.00">[root] @noita&#45;explorer/fastlz#build</text>
</g>
<!-- [root] @noita&#45;explorer/scrapers#build&#45;&gt;[root] @noita&#45;explorer/fastlz#build -->
<g id="edge22" class="edge">
<title>[root] @noita&#45;explorer/scrapers#build&#45;&gt;[root] @noita&#45;explorer/fastlz#build</title>
<path fill="none" stroke="black" d="M1236.3,-290.92C1308.16,-279.19 1410.34,-262.52 1484.41,-250.43"/>
<polygon fill="black" stroke="black" points="1485.36,-253.83 1494.67,-248.76 1484.23,-246.92 1485.36,-253.83"/>
</g>
<!-- [root] @noita&#45;explorer/model&#45;noita#build -->
<g id="node9" class="node">
<title>[root] @noita&#45;explorer/model&#45;noita#build</title>
<ellipse fill="none" stroke="black" cx="1241" cy="-234" rx="173.11" ry="18"/>
<text text-anchor="middle" x="1241" y="-229.8" font-family="Times,serif" font-size="14.00">[root] @noita&#45;explorer/model&#45;noita#build</text>
</g>
<!-- [root] @noita&#45;explorer/scrapers#build&#45;&gt;[root] @noita&#45;explorer/model&#45;noita#build -->
<g id="edge24" class="edge">
<title>[root] @noita&#45;explorer/scrapers#build&#45;&gt;[root] @noita&#45;explorer/model&#45;noita#build</title>
<path fill="none" stroke="black" d="M1172.03,-288.05C1183.68,-279.09 1198.16,-267.96 1210.84,-258.2"/>
<polygon fill="black" stroke="black" points="1213.07,-260.9 1218.86,-252.03 1208.8,-255.35 1213.07,-260.9"/>
</g>
<!-- [root] @noita&#45;explorer/tools#build&#45;&gt;[root] @noita&#45;explorer/model#build -->
<g id="edge26" class="edge">
<title>[root] @noita&#45;explorer/tools#build&#45;&gt;[root] @noita&#45;explorer/model#build</title>
<path fill="none" stroke="black" d="M765.56,-216.59C790.2,-206.62 821.84,-193.82 848.02,-183.22"/>
<polygon fill="black" stroke="black" points="849.44,-186.43 857.39,-179.43 846.81,-179.94 849.44,-186.43"/>
</g>
<!-- [root] ___ROOT___ -->
<g id="node7" class="node">
<title>[root] ___ROOT___</title>
<ellipse fill="none" stroke="black" cx="1324" cy="-18" rx="90.89" ry="18"/>
<text text-anchor="middle" x="1324" y="-13.8" font-family="Times,serif" font-size="14.00">[root] ___ROOT___</text>
</g>
<!-- [root] @noita&#45;explorer/fastlz#build&#45;&gt;[root] ___ROOT___ -->
<g id="edge5" class="edge">
<title>[root] @noita&#45;explorer/fastlz#build&#45;&gt;[root] ___ROOT___</title>
<path fill="none" stroke="black" d="M1581.2,-215.75C1584.33,-183.03 1586.02,-111.66 1548,-72 1528.8,-51.97 1464.52,-38.08 1409.72,-29.56"/>
<polygon fill="black" stroke="black" points="1410.02,-26.06 1399.61,-28.03 1408.98,-32.98 1410.02,-26.06"/>
</g>
<!-- [root] @noita&#45;explorer/map#build -->
<g id="node8" class="node">
<title>[root] @noita&#45;explorer/map#build</title>
<ellipse fill="none" stroke="black" cx="1469" cy="-306" rx="143.04" ry="18"/>
<text text-anchor="middle" x="1469" y="-301.8" font-family="Times,serif" font-size="14.00">[root] @noita&#45;explorer/map#build</text>
</g>
<!-- [root] @noita&#45;explorer/map#build&#45;&gt;[root] @noita&#45;explorer/model#build -->
<g id="edge9" class="edge">
<title>[root] @noita&#45;explorer/map#build&#45;&gt;[root] @noita&#45;explorer/model#build</title>
<path fill="none" stroke="black" d="M1367.29,-293.3C1250.49,-279.64 1073.02,-258.14 1059,-252 1036.17,-242 1037.12,-229.23 1016,-216 995.78,-203.34 972.02,-192.06 951.15,-183.19"/>
<polygon fill="black" stroke="black" points="952.36,-179.9 941.78,-179.29 949.67,-186.37 952.36,-179.9"/>
</g>
<!-- [root] @noita&#45;explorer/map#build&#45;&gt;[root] @noita&#45;explorer/tools#build -->
<g id="edge11" class="edge">
<title>[root] @noita&#45;explorer/map#build&#45;&gt;[root] @noita&#45;explorer/tools#build</title>
<path fill="none" stroke="black" d="M1367.24,-293.3C1350.46,-291.47 1333.25,-289.64 1317,-288 1156.88,-271.88 972.15,-255.73 852.21,-245.57"/>
<polygon fill="black" stroke="black" points="852.15,-242.05 841.89,-244.7 851.56,-249.03 852.15,-242.05"/>
</g>
<!-- [root] @noita&#45;explorer/map#build&#45;&gt;[root] @noita&#45;explorer/fastlz#build -->
<g id="edge8" class="edge">
<title>[root] @noita&#45;explorer/map#build&#45;&gt;[root] @noita&#45;explorer/fastlz#build</title>
<path fill="none" stroke="black" d="M1495.35,-288.23C1509.93,-278.95 1528.25,-267.29 1544.03,-257.26"/>
<polygon fill="black" stroke="black" points="1545.93,-260.19 1552.49,-251.87 1542.17,-254.29 1545.93,-260.19"/>
</g>
<!-- [root] @noita&#45;explorer/map#build&#45;&gt;[root] @noita&#45;explorer/model&#45;noita#build -->
<g id="edge10" class="edge">
<title>[root] @noita&#45;explorer/map#build&#45;&gt;[root] @noita&#45;explorer/model&#45;noita#build</title>
<path fill="none" stroke="black" d="M1417.55,-289.2C1383.81,-278.85 1339.49,-265.24 1303.7,-254.25"/>
<polygon fill="black" stroke="black" points="1304.43,-250.81 1293.85,-251.22 1302.38,-257.51 1304.43,-250.81"/>
</g>
<!-- [root] @noita&#45;explorer/model&#45;noita#build&#45;&gt;[root] @noita&#45;explorer/model#build -->
<g id="edge14" class="edge">
<title>[root] @noita&#45;explorer/model&#45;noita#build&#45;&gt;[root] @noita&#45;explorer/model#build</title>
<path fill="none" stroke="black" d="M1166.15,-217.72C1111.39,-206.55 1037.1,-191.39 980.61,-179.86"/>
<polygon fill="black" stroke="black" points="981.13,-176.39 970.63,-177.82 979.73,-183.25 981.13,-176.39"/>
</g>
<!-- [root] @noita&#45;explorer/model&#45;noita#generate&#45;barrels -->
<g id="node11" class="node">
<title>[root] @noita&#45;explorer/model&#45;noita#generate&#45;barrels</title>
<ellipse fill="none" stroke="black" cx="1324" cy="-90" rx="215.29" ry="18"/>
<text text-anchor="middle" x="1324" y="-85.8" font-family="Times,serif" font-size="14.00">[root] @noita&#45;explorer/model&#45;noita#generate&#45;barrels</text>
</g>
<!-- [root] @noita&#45;explorer/model&#45;noita#build&#45;&gt;[root] @noita&#45;explorer/model&#45;noita#generate&#45;barrels -->
<g id="edge15" class="edge">
<title>[root] @noita&#45;explorer/model&#45;noita#build&#45;&gt;[root] @noita&#45;explorer/model&#45;noita#generate&#45;barrels</title>
<path fill="none" stroke="black" d="M1251.01,-215.87C1265.41,-191.24 1292.06,-145.64 1308.87,-116.88"/>
<polygon fill="black" stroke="black" points="1311.93,-118.59 1313.95,-108.19 1305.88,-115.06 1311.93,-118.59"/>
</g>
<!-- [root] @noita&#45;explorer/model#generate&#45;barrels&#45;&gt;[root] ___ROOT___ -->
<g id="edge13" class="edge">
<title>[root] @noita&#45;explorer/model#generate&#45;barrels&#45;&gt;[root] ___ROOT___</title>
<path fill="none" stroke="black" d="M988.87,-74.07C1065.53,-61.47 1174.08,-43.63 1246.65,-31.71"/>
<polygon fill="black" stroke="black" points="1247.35,-35.14 1256.65,-30.07 1246.21,-28.24 1247.35,-35.14"/>
</g>
<!-- [root] @noita&#45;explorer/model&#45;noita#generate&#45;barrels&#45;&gt;[root] ___ROOT___ -->
<g id="edge16" class="edge">
<title>[root] @noita&#45;explorer/model&#45;noita#generate&#45;barrels&#45;&gt;[root] ___ROOT___</title>
<path fill="none" stroke="black" d="M1324,-71.7C1324,-63.98 1324,-54.71 1324,-46.11"/>
<polygon fill="black" stroke="black" points="1327.5,-46.1 1324,-36.1 1320.5,-46.1 1327.5,-46.1"/>
</g>
<!-- [root] @noita&#45;explorer/noita&#45;component&#45;library#build -->
<g id="node12" class="node">
<title>[root] @noita&#45;explorer/noita&#45;component&#45;library#build</title>
<ellipse fill="none" stroke="black" cx="237" cy="-378" rx="220.57" ry="18"/>
<text text-anchor="middle" x="237" y="-373.8" font-family="Times,serif" font-size="14.00">[root] @noita&#45;explorer/noita&#45;component&#45;library#build</text>
</g>
<!-- [root] @noita&#45;explorer/noita&#45;component&#45;library#build&#45;&gt;[root] @noita&#45;explorer/model#build -->
<g id="edge17" class="edge">
<title>[root] @noita&#45;explorer/noita&#45;component&#45;library#build&#45;&gt;[root] @noita&#45;explorer/model#build</title>
<path fill="none" stroke="black" d="M188.92,-360.21C172.65,-351.96 156.27,-340.21 147,-324 139.06,-310.11 137.03,-300.51 147,-288 218.79,-197.88 541.12,-172.53 739.43,-165.53"/>
<polygon fill="black" stroke="black" points="739.79,-169.02 749.66,-165.18 739.55,-162.03 739.79,-169.02"/>
</g>
<!-- [root] @noita&#45;explorer/noita&#45;component&#45;library#build&#45;&gt;[root] @noita&#45;explorer/tools#build -->
<g id="edge19" class="edge">
<title>[root] @noita&#45;explorer/noita&#45;component&#45;library#build&#45;&gt;[root] @noita&#45;explorer/tools#build</title>
<path fill="none" stroke="black" d="M196.24,-360.23C181.08,-351.76 165.51,-339.85 157,-324 149.43,-309.9 146.22,-299.83 157,-288 184.66,-257.64 414.9,-244.37 573.61,-238.79"/>
<polygon fill="black" stroke="black" points="574.08,-242.28 583.96,-238.44 573.84,-235.28 574.08,-242.28"/>
</g>
<!-- [root] @noita&#45;explorer/react&#45;utils#build -->
<g id="node13" class="node">
<title>[root] @noita&#45;explorer/react&#45;utils#build</title>
<ellipse fill="none" stroke="black" cx="331" cy="-306" rx="165" ry="18"/>
<text text-anchor="middle" x="331" y="-301.8" font-family="Times,serif" font-size="14.00">[root] @noita&#45;explorer/react&#45;utils#build</text>
</g>
<!-- [root] @noita&#45;explorer/noita&#45;component&#45;library#build&#45;&gt;[root] @noita&#45;explorer/react&#45;utils#build -->
<g id="edge18" class="edge">
<title>[root] @noita&#45;explorer/noita&#45;component&#45;library#build&#45;&gt;[root] @noita&#45;explorer/react&#45;utils#build</title>
<path fill="none" stroke="black" d="M259.75,-360.05C271.79,-351.09 286.74,-339.96 299.84,-330.2"/>
<polygon fill="black" stroke="black" points="302.2,-332.81 308.13,-324.03 298.02,-327.2 302.2,-332.81"/>
</g>
<!-- [root] @noita&#45;explorer/react&#45;utils#build&#45;&gt;[root] @noita&#45;explorer/model#build -->
<g id="edge20" class="edge">
<title>[root] @noita&#45;explorer/react&#45;utils#build&#45;&gt;[root] @noita&#45;explorer/model#build</title>
<path fill="none" stroke="black" d="M368.91,-288.32C415.6,-268.39 497.74,-235.32 571,-216 640.15,-197.76 719.27,-184.74 782.37,-176.16"/>
<polygon fill="black" stroke="black" points="782.91,-179.62 792.35,-174.82 781.98,-172.68 782.91,-179.62"/>
</g>
<!-- [root] @noita&#45;explorer/react&#45;utils#build&#45;&gt;[root] @noita&#45;explorer/tools#build -->
<g id="edge21" class="edge">
<title>[root] @noita&#45;explorer/react&#45;utils#build&#45;&gt;[root] @noita&#45;explorer/tools#build</title>
<path fill="none" stroke="black" d="M413.6,-290.33C478.52,-278.79 568.82,-262.75 635.47,-250.91"/>
<polygon fill="black" stroke="black" points="636.31,-254.31 645.54,-249.12 635.08,-247.42 636.31,-254.31"/>
</g>
<!-- [root] @noita&#45;explorer/web#build -->
<g id="node14" class="node">
<title>[root] @noita&#45;explorer/web#build</title>
<ellipse fill="none" stroke="black" cx="725" cy="-450" rx="142.46" ry="18"/>
<text text-anchor="middle" x="725" y="-445.8" font-family="Times,serif" font-size="14.00">[root] @noita&#45;explorer/web#build</text>
</g>
<!-- [root] @noita&#45;explorer/web#build&#45;&gt;[root] @noita&#45;explorer/file&#45;systems#build -->
<g id="edge28" class="edge">
<title>[root] @noita&#45;explorer/web#build&#45;&gt;[root] @noita&#45;explorer/file&#45;systems#build</title>
<path fill="none" stroke="black" d="M725,-431.87C725,-407.67 725,-363.21 725,-334.39"/>
<polygon fill="black" stroke="black" points="728.5,-334.19 725,-324.19 721.5,-334.19 728.5,-334.19"/>
</g>
<!-- [root] @noita&#45;explorer/web#build&#45;&gt;[root] @noita&#45;explorer/model#build -->
<g id="edge30" class="edge">
<title>[root] @noita&#45;explorer/web#build&#45;&gt;[root] @noita&#45;explorer/model#build</title>
<path fill="none" stroke="black" d="M582.85,-448.66C384.7,-446.67 45.28,-437.21 7,-396 -3.89,-384.28 -0.16,-374.31 7,-360 54.7,-264.59 99.16,-253.53 199,-216 294.27,-180.19 563.42,-168.55 738.58,-164.78"/>
<polygon fill="black" stroke="black" points="738.74,-168.28 748.67,-164.57 738.6,-161.28 738.74,-168.28"/>
</g>
<!-- [root] @noita&#45;explorer/web#build&#45;&gt;[root] @noita&#45;explorer/scrapers#build -->
<g id="edge34" class="edge">
<title>[root] @noita&#45;explorer/web#build&#45;&gt;[root] @noita&#45;explorer/scrapers#build</title>
<path fill="none" stroke="black" d="M855.98,-442.88C948.24,-436.3 1062,-422.9 1101,-396 1122.24,-381.35 1135.21,-354.38 1142.42,-333.96"/>
<polygon fill="black" stroke="black" points="1145.81,-334.85 1145.59,-324.26 1139.16,-332.67 1145.81,-334.85"/>
</g>
<!-- [root] @noita&#45;explorer/web#build&#45;&gt;[root] @noita&#45;explorer/tools#build -->
<g id="edge35" class="edge">
<title>[root] @noita&#45;explorer/web#build&#45;&gt;[root] @noita&#45;explorer/tools#build</title>
<path fill="none" stroke="black" d="M679.41,-432.91C611.44,-406.4 496.29,-350.26 543,-288 554.61,-272.53 593.92,-260.09 633.06,-251.16"/>
<polygon fill="black" stroke="black" points="633.98,-254.55 642.98,-248.97 632.46,-247.71 633.98,-254.55"/>
</g>
<!-- [root] @noita&#45;explorer/web#build&#45;&gt;[root] @noita&#45;explorer/fastlz#build -->
<g id="edge27" class="edge">
<title>[root] @noita&#45;explorer/web#build&#45;&gt;[root] @noita&#45;explorer/fastlz#build</title>
<path fill="none" stroke="black" d="M858.54,-443.61C1034.75,-435.72 1335.2,-419.39 1443,-396 1533.28,-376.41 1585.19,-399.8 1638,-324 1647.15,-310.87 1644.52,-302.61 1638,-288 1632.87,-276.51 1623.89,-266.46 1614.45,-258.3"/>
<polygon fill="black" stroke="black" points="1616.48,-255.44 1606.49,-251.89 1612.09,-260.89 1616.48,-255.44"/>
</g>
<!-- [root] @noita&#45;explorer/web#build&#45;&gt;[root] @noita&#45;explorer/map#build -->
<g id="edge29" class="edge">
<title>[root] @noita&#45;explorer/web#build&#45;&gt;[root] @noita&#45;explorer/map#build</title>
<path fill="none" stroke="black" d="M834.48,-438.4C916.1,-429.59 1030.07,-415.36 1129,-396 1227.45,-376.74 1339.69,-345.51 1407.39,-325.63"/>
<polygon fill="black" stroke="black" points="1408.45,-328.96 1417.05,-322.78 1406.47,-322.25 1408.45,-328.96"/>
</g>
<!-- [root] @noita&#45;explorer/web#build&#45;&gt;[root] @noita&#45;explorer/model&#45;noita#build -->
<g id="edge31" class="edge">
<title>[root] @noita&#45;explorer/web#build&#45;&gt;[root] @noita&#45;explorer/model&#45;noita#build</title>
<path fill="none" stroke="black" d="M848.15,-440.87C1082.13,-424.13 1572.07,-382.45 1621,-324 1631.27,-311.73 1631.5,-300.07 1621,-288 1612.49,-278.22 1473.87,-260.74 1366.49,-248.54"/>
<polygon fill="black" stroke="black" points="1366.86,-245.06 1356.53,-247.42 1366.07,-252.02 1366.86,-245.06"/>
</g>
<!-- [root] @noita&#45;explorer/web#build&#45;&gt;[root] @noita&#45;explorer/noita&#45;component&#45;library#build -->
<g id="edge32" class="edge">
<title>[root] @noita&#45;explorer/web#build&#45;&gt;[root] @noita&#45;explorer/noita&#45;component&#45;library#build</title>
<path fill="none" stroke="black" d="M634.64,-436.04C554.6,-424.56 437.38,-407.74 350.93,-395.34"/>
<polygon fill="black" stroke="black" points="351.21,-391.85 340.82,-393.89 350.22,-398.78 351.21,-391.85"/>
</g>
<!-- [root] @noita&#45;explorer/web#build&#45;&gt;[root] @noita&#45;explorer/react&#45;utils#build -->
<g id="edge33" class="edge">
<title>[root] @noita&#45;explorer/web#build&#45;&gt;[root] @noita&#45;explorer/react&#45;utils#build</title>
<path fill="none" stroke="black" d="M634.16,-436.1C594.56,-428.11 548.49,-415.52 510,-396 487.77,-384.73 488.45,-372.69 467,-360 444.19,-346.5 417.32,-335.19 393.51,-326.52"/>
<polygon fill="black" stroke="black" points="394.46,-323.15 383.86,-323.1 392.11,-329.74 394.46,-323.15"/>
</g>
</g>
</svg>
